<?xml version="1.0" encoding="utf-8"?>
<!-- Generator: Adobe Illustrator 24.3.0, SVG Export Plug-In . SVG Version: 6.00 Build 0)  -->
<svg version="1.1" id="Layer_1" xmlns="http://www.w3.org/2000/svg" xmlns:xlink="http://www.w3.org/1999/xlink" x="0px" y="0px"
	 viewBox="0 0 32 32" style="enable-background:new 0 0 32 32;" xml:space="preserve">
<style type="text/css">
	.st0{enable-background:new    ;}
	.st1{fill:#FFFFFF;}
</style>
<g class="st0">
	<path class="st1" d="M14.3,19.6l-4.1,0.3c-0.2,0.6-0.7,0.9-1.6,0.9c-0.9,0-1.5-0.4-1.6-1.3l-1-8.3c0-0.1,0-0.2,0-0.2
		c0-0.5,0.2-0.9,0.7-1.2c0.3-0.1,0.6-0.2,0.9-0.2h0.1c0.7,0,1.2,0.2,1.5,0.7l5.1-0.4V5.7c0-0.5,0.2-0.9,0.7-1.1
		c0.3-0.2,0.6-0.2,0.9-0.2c0.5,0,1,0.2,1.3,0.5c0.2,0.2,0.3,0.5,0.3,0.8v3.9l5.6-0.5c0.1,0,0.3,0,0.6,0c1.6,0,2.3,0.7,2.3,2
		c0,0.3,0,0.7-0.1,1.1l-1,4.1c0.4,0.3,0.6,0.7,0.6,1.2c0,0.9-0.4,1.3-1.2,1.4l-6.8,0.4v6.9c0,0.4-0.1,0.7-0.4,0.9
		c-0.3,0.3-0.7,0.5-1.2,0.5c-0.7,0-1.2-0.2-1.5-0.7c-0.1-0.2-0.2-0.4-0.2-0.6V19.6z M14.3,16.8v-4.2L9.5,13l0.5,4.1L14.3,16.8z
		 M17.5,16.7l4.2-0.3l0.6-3.7c0-0.1,0-0.1,0-0.2c0-0.3-0.2-0.5-0.5-0.4l-0.1,0l-4.3,0.3V16.7z"/>
</g>
</svg>
